<svg xmlns="http://www.w3.org/2000/svg" viewBox="0 0 1280 760">
  <defs>
    <linearGradient id="bg" x1="0" y1="0" x2="1" y2="1">
      <stop offset="0" stop-color="#10172A"/>
      <stop offset="0.58" stop-color="#071225"/>
      <stop offset="1" stop-color="#070B16"/>
    </linearGradient>
    <linearGradient id="panel" x1="0" y1="0" x2="0" y2="1">
      <stop offset="0" stop-color="#18243A"/>
      <stop offset="1" stop-color="#10172A"/>
    </linearGradient>
  </defs>
  <rect width="1280" height="760" fill="url(#bg)"/>
  <g opacity="0.28">
    <path d="M0 620C180 520 260 590 410 462C560 334 690 404 850 260C980 143 1100 120 1280 74" fill="none" stroke="#1FB6FF" stroke-width="3"/>
    <path d="M0 678C180 584 280 650 430 520C600 373 720 450 900 310C1050 194 1150 176 1280 132" fill="none" stroke="#18C6A3" stroke-width="2"/>
    <path d="M1044 182L1092 154L1134 190L1176 144" fill="none" stroke="#7DD3FC" stroke-width="3" stroke-linecap="round" stroke-linejoin="round"/>
  </g>
  <g transform="translate(520 96)" opacity="0.94">
    <rect x="0" y="0" width="640" height="440" rx="18" fill="#10172A" stroke="#26344D"/>
    <rect x="24" y="24" width="592" height="56" rx="8" fill="#121A2F" stroke="#26344D"/>
    <rect x="24" y="104" width="360" height="232" rx="8" fill="url(#panel)" stroke="#26344D"/>
    <rect x="406" y="104" width="210" height="108" rx="8" fill="#121A2F" stroke="#26344D"/>
    <rect x="406" y="228" width="210" height="108" rx="8" fill="#121A2F" stroke="#26344D"/>
    <rect x="24" y="360" width="592" height="56" rx="8" fill="#121A2F" stroke="#26344D"/>
    <path d="M48 292C92 246 120 271 156 208C199 132 250 190 293 126C316 92 338 83 362 76" fill="none" stroke="#1FB6FF" stroke-width="4"/>
    <path d="M48 300C106 276 152 300 208 248C254 205 279 222 338 180" fill="none" stroke="#18C6A3" stroke-width="3" opacity="0.78"/>
    <path d="M62 286H130L158 316L204 202L248 282H354" fill="none" stroke="#F2C94C" stroke-width="4" stroke-linecap="round" stroke-linejoin="round"/>
    <g fill="#E8EEF8" opacity="0.72">
      <circle cx="156" cy="208" r="5"/>
      <circle cx="293" cy="126" r="5"/>
    </g>
    <circle cx="362" cy="76" r="5" fill="#F2C94C" opacity="0.84"/>
    <g fill="#18C6A3" opacity="0.72">
      <rect x="430" y="132" width="150" height="10" rx="5"/>
      <rect x="430" y="158" width="96" height="10" rx="5"/>
      <rect x="430" y="256" width="140" height="10" rx="5"/>
      <rect x="430" y="282" width="112" height="10" rx="5"/>
      <rect x="50" y="382" width="520" height="10" rx="5"/>
    </g>
  </g>
  <g opacity="0.8">
    <circle cx="1044" cy="182" r="7" fill="#E8EEF8"/>
    <circle cx="1092" cy="154" r="6" fill="#7DD3FC"/>
    <circle cx="1134" cy="190" r="7" fill="#18C6A3"/>
    <circle cx="1176" cy="144" r="8" fill="#F2C94C"/>
  </g>
</svg>
